<?xml version="1.0" standalone="no"?><!DOCTYPE svg PUBLIC "-//W3C//DTD SVG 1.1//EN" "http://www.w3.org/Graphics/SVG/1.1/DTD/svg11.dtd"><svg t="1730277340506" class="icon" viewBox="0 0 1024 1024" version="1.1" xmlns="http://www.w3.org/2000/svg" p-id="8045" xmlns:xlink="http://www.w3.org/1999/xlink" width="200" height="200"><path d="M512 981.333c-258.133 0-469.333-211.2-469.333-469.333S253.867 42.667 512 42.667 981.333 253.867 981.333 512 770.133 981.333 512 981.333zM324.267 554.667H130.133C151.467 746.667 313.6 896 512 896c196.267 0 360.533-149.333 381.867-341.333H699.733C680.533 640 603.733 704 512 704s-168.533-64-187.733-149.333zM618.667 512c0-59.733-46.934-106.667-106.667-106.667S405.333 452.267 405.333 512 452.267 618.667 512 618.667 618.667 571.733 618.667 512zM512 128c-196.267 0-360.533 149.333-381.867 341.333h194.134C343.467 384 420.267 320 512 320s168.533 64 187.733 149.333h194.134C872.533 277.333 708.267 128 512 128z" fill="#2F3CF4" p-id="8046"></path></svg>