<?xml version="1.0" standalone="no"?>
<svg xmlns="http://www.w3.org/2000/svg" width="24" height="24"><rect width="24" height="24" opacity="0"></rect><g><path d="M2.76 9.53Q3.05 9.53 3.28 9.31Q3.5 9.1 3.5 8.78L3.5 5.76Q3.5 4.82 4.16 4.16Q4.82 3.5 5.76 3.5L8.71 3.5Q9.02 3.5 9.25 3.29Q9.48 3.07 9.48 2.76Q9.48 2.42 9.26 2.21Q9.05 1.99 8.71 1.99L5.76 1.99Q4.75 1.99 3.88 2.5Q3 3 2.5 3.86Q1.99 4.73 1.99 5.76L1.99 8.78Q1.99 9.1 2.22 9.31Q2.45 9.53 2.76 9.53ZM8.69 22.01Q9 22.01 9.23 21.78Q9.46 21.55 9.46 21.24Q9.46 20.93 9.23 20.71Q9 20.5 8.69 20.5L5.76 20.5Q4.82 20.5 4.16 19.84Q3.5 19.18 3.5 18.24L3.5 15.22Q3.5 14.9 3.28 14.69Q3.05 14.47 2.76 14.47Q2.45 14.47 2.22 14.69Q1.99 14.9 1.99 15.24L1.99 18.24Q1.99 19.25 2.51 20.11Q3.02 20.98 3.89 21.49Q4.75 22.01 5.76 22.01L8.69 22.01ZM18.24 22.01Q19.25 22.01 20.11 21.49Q20.98 20.98 21.49 20.11Q22.01 19.25 22.01 18.24L22.01 15.24Q22.01 14.93 21.78 14.7Q21.55 14.47 21.24 14.47Q20.93 14.47 20.71 14.7Q20.5 14.93 20.5 15.24L20.5 18.24Q20.5 19.18 19.84 19.84Q19.18 20.5 18.24 20.5L15.24 20.5Q14.93 20.5 14.7 20.71Q14.47 20.93 14.47 21.24Q14.47 21.55 14.7 21.78Q14.93 22.01 15.24 22.01L18.24 22.01ZM21.24 9.53Q21.55 9.53 21.78 9.31Q22.01 9.1 22.01 8.78L22.01 5.76Q22.01 4.73 21.5 3.86Q21 3 20.12 2.5Q19.25 1.99 18.24 1.99L15.31 1.99Q15 1.99 14.77 2.21Q14.54 2.42 14.54 2.76Q14.54 3.07 14.77 3.29Q15 3.5 15.31 3.5L18.24 3.5Q19.18 3.5 19.84 4.16Q20.5 4.82 20.5 5.76L20.5 8.78Q20.5 9.1 20.71 9.31Q20.93 9.53 21.24 9.53Z" fill="rgba(0,0,0,0.9019607843137255)"></path><path d="M12 17.5Q13.49 17.5 14.75 16.75Q16.01 16.01 16.75 14.75Q17.5 13.49 17.5 12Q17.5 10.51 16.75 9.24Q16.01 7.97 14.75 7.24Q13.49 6.5 12 6.5Q10.51 6.5 9.24 7.24Q7.97 7.97 7.24 9.24Q6.5 10.51 6.5 12Q6.5 13.49 7.24 14.75Q7.97 16.01 9.24 16.75Q10.51 17.5 12 17.5ZM12 7.99Q13.08 7.99 14 8.53Q14.93 9.07 15.47 10Q16.01 10.92 16.01 12Q16.01 13.08 15.47 14Q14.93 14.93 14 15.47Q13.08 16.01 12 16.01Q10.9 16.01 9.98 15.47Q9.07 14.93 8.53 14Q7.99 13.08 7.99 12Q7.99 10.92 8.53 10Q9.07 9.07 9.98 8.53Q10.9 7.99 12 7.99Z" fill="rgba(0,0,0,0.9019607843137255)"></path></g></svg>