<?xml version="1.0" standalone="no"?><!DOCTYPE svg PUBLIC "-//W3C//DTD SVG 1.1//EN" "http://www.w3.org/Graphics/SVG/1.1/DTD/svg11.dtd"><svg t="1732842194254" class="icon" viewBox="0 0 1024 1024" version="1.1" xmlns="http://www.w3.org/2000/svg" p-id="6552" xmlns:xlink="http://www.w3.org/1999/xlink" width="200" height="200"><path d="M652.56 295.999a271.92 271.92 0 0 1-77.401 115.856c-9.425 8.289-86.686 74.277-196.268 74.663-71.08 0.25-82.782-27.359-138.218-15.448-47.745 10.258-94.556 42.66-118.866 90.11-31.057 60.62-10.797 117.322-5.53 131.304 3.88 10.3 19.427 48.479 60.815 79.812 32.982 24.97 65.654 32.774 91.224 38.62 67.152 15.35 122.625 5.766 154.985-0.155 18.17-3.323 93.336-18.184 174.718-70.032 15.29-9.741 91.337-59.357 151.294-151.228 38.55-59.072 56.36-113.825 71.872-162.199a895.104 895.104 0 0 0 24.879-95.26z" fill="#662D91" p-id="6553"></path><path d="M342.67 831.72a346.761 346.761 0 0 1-77.546-8.683c-24.101-5.51-60.527-13.833-96.484-41.055-39.989-30.275-57.894-66.48-65.006-85.367-10.456-27.75-23.568-82.942 6.078-140.81 24.648-48.109 73.676-85.236 127.948-96.894 33.291-7.148 53.25-1.347 74.392 4.796 17.656 5.13 35.99 10.457 66.788 10.33 101.399-0.357 173.661-59.42 187.12-71.258a260.76 260.76 0 0 0 73.842-110.605l3.665-10.597 218.226 40.65-2.46 12.136a910.165 910.165 0 0 1-25.208 96.51c-14.843 46.29-33.314 103.902-73.263 165.11-56.63 86.78-127.385 137.339-155.177 155.048-77.676 49.489-151.545 66.826-179.7 71.981-18.9 3.456-47.65 8.709-83.215 8.709z m-76.05-351.157a108.348 108.348 0 0 0-22.934 2.669c-46.505 9.99-88.571 41.917-109.784 83.322-25.505 49.782-14.067 97.677-4.98 121.797 4.974 13.206 20.448 46.872 56.625 74.264 31.286 23.681 62.89 30.909 85.963 36.18 65.628 15.003 119.998 5.064 149.21-0.28 26.522-4.857 96.164-21.213 169.731-68.082 26.359-16.798 93.485-64.785 147.41-147.413 38.156-58.465 55.332-112.03 70.482-159.29a888.414 888.414 0 0 0 22.005-81.887L661.434 310.38a285.239 285.239 0 0 1-77.075 110.547c-14.741 12.968-93.932 77.68-205.417 78.07l-1.001 0.003c-34.437 0-56.284-6.353-73.875-11.466-13.21-3.839-23.984-6.971-37.447-6.971z" fill="" p-id="6554"></path><path d="M661.33 322.234c-9.392 27.356-58.63 84.312-99.61 120.603-8.495 7.523-83.523 52.811-182.285 53.162-64.063 0.227-70.469-17.619-125.71-14.617-44.101 2.397-98.62 32.475-120.53 75.54-27.99 55.015-9.73 106.476-4.983 119.165 3.497 9.348 17.508 43.997 54.81 72.434 29.725 22.66 59.171 29.744 82.216 35.049 60.522 13.931 110.518 5.233 139.683-0.14 16.375-3.016 84.12-16.503 157.466-63.558 13.78-8.84 82.319-53.87 136.356-137.248 34.744-53.61 50.795-103.302 64.775-147.204a816.957 816.957 0 0 0 22.422-86.453z" fill="#9C06D6" p-id="6555"></path><path d="M729.903 237.685c-11.744 3.934-19.61-12.262-40.588-14.4-17.234-1.757-36.522 7.38-46.383 21.6-15.784 22.761-7.321 55.946 9.662 64.8 10.187 5.311 18.457-0.736 29.286 6.432 10.501 6.951 7.454 15.77 15.784 26.951 12.528 16.817 41.63 26.683 63.137 20.827 17.597-4.791 20.774-17.63 39.461-18.376 35.041-1.4 50.893 2.652 64.455-13.476 12.96-15.412 9.622-33.48 9.207-35.527-4.19-20.66-23.23-30.626-30.254-34.303-20.714-10.841-38.011 1.335-44.723-7.35-4.173-5.402 0.26-11.903 10.114-41.38 10.653-31.873 9.859-37.41 7.253-41.665-6.198-10.121-23.878-14.983-36.832-10.91-14.29 4.49-21.103 19.309-31.44 41.789-10.583 23.01-9.883 32.222-18.14 34.988z" fill="#6FA240" p-id="6556"></path><path d="M747.276 378.084c-23.143 0-47.876-10.793-60.622-27.901a55.36 55.36 0 0 1-8.149-16.405c-1.688-4.952-2.208-6.046-4.387-7.487-2.27-1.505-3.798-1.587-8.277-1.615-5.097-0.033-12.075-0.079-19.793-4.1-10.623-5.54-18.887-16.86-22.675-31.062-4.757-17.83-1.652-37.045 8.303-51.4 12.684-18.293 37.024-29.488 59.097-27.236 13.74 1.401 22.977 7.233 29.72 11.493 1.37 0.862 3.058 1.929 4.39 2.663 0.752-1.743 1.668-4.275 2.512-6.603 1.829-5.049 4.335-11.965 8.33-20.649 11.329-24.635 19.511-42.426 39.47-48.7 19.385-6.076 43.542 1.493 52.758 16.554 5.794 9.449 4.597 19.568-6.098 51.558-2.555 7.645-4.75 13.766-6.533 18.733-1.267 3.525-2.49 6.944-3.35 9.604 0.402-0.03 0.798-0.064 1.167-0.094 8.906-0.716 22.342-1.829 37.097 5.896 7.799 4.086 31.508 16.499 36.857 42.867 0.857 4.254 4.295 26.366-11.827 45.538-14.725 17.514-32.676 17.669-55.404 17.864-5.633 0.049-11.928 0.1-19.027 0.384-5.79 0.231-8.529 2.1-14.169 6.304-5.244 3.906-11.771 8.77-22.106 11.585a65.997 65.997 0 0 1-17.284 2.209z m-62.26-142.535c-11.392 0-24.22 6.579-30.825 16.107-6.017 8.671-7.813 20.576-4.81 31.84 2.336 8.754 6.717 13.712 9.76 15.3 1.56 0.813 3.045 0.895 6.886 0.92 5.716 0.036 14.35 0.094 23.618 6.23 9.667 6.396 12.294 14.09 14.401 20.272 1.19 3.492 2.221 6.505 4.626 9.735 9.445 12.67 32.493 20.284 48.37 15.963 5.248-1.429 8.617-3.94 12.88-7.117 6.674-4.973 14.977-11.158 29.765-11.75 7.436-0.298 14.028-0.356 19.927-0.408 22.02-0.189 28.047-0.557 34.55-8.29 9.2-10.94 6.884-24.075 6.59-25.534-3.027-14.927-17.474-22.49-23.644-25.72-7.544-3.949-14.395-3.4-21.622-2.794-7.92 0.64-19.868 1.624-27.419-8.148-7.112-9.204-3.935-18.062 1.832-34.138 1.738-4.835 3.874-10.795 6.364-18.242 8.247-24.668 8.535-30.723 8.277-32.182-2.526-3.93-13.13-7.264-20.775-4.86-8.231 2.587-13.685 13.732-23.401 34.863-3.583 7.788-5.797 13.904-7.577 18.815-3.733 10.302-6.955 19.2-18.35 23.017h-0.004c-12.307 4.129-21.945-1.956-28.982-6.398-5.385-3.4-10.473-6.612-17.598-7.338a27.321 27.321 0 0 0-2.84-0.143z" fill="" p-id="6557"></path><path d="M262.381 505.206a9.886 9.207 0 1 0 19.772 0 9.886 9.207 0 1 0-19.772 0Z" fill="#FFFFFF" p-id="6558"></path><path d="M272.266 517.532c-7.299 0-13.237-5.53-13.237-12.325 0-6.798 5.938-12.328 13.237-12.328s13.237 5.53 13.237 12.328c0 6.794-5.938 12.325-13.237 12.325z m0-18.413a6.102 6.102 0 1 0 6.537 6.088 6.33 6.33 0 0 0-6.537-6.088zM138.33 622.5c-3.892-2.983 9.029-50.86 33.7-75.026 17.22-16.868 49.7-32.688 53.385-33.02a9.607 9.607 0 0 1 6.708 1.894 8.164 8.164 0 0 1 1.254 12.015 127.21 127.21 0 0 0-49.84 30.316 114.742 114.742 0 0 0-32.305 62.654 9.665 9.665 0 0 1-12.901 1.167z" fill="#FFFFFF" p-id="6559"></path></svg>